<svg width="79" height="32" viewBox="0 0 79 32" fill="none" xmlns="http://www.w3.org/2000/svg">
<path d="M8.58829 22.0022C6.08845 21.5521 3.622 20.9331 1.20594 20.1492C0.965245 19.7319 0.805582 19.2729 0.735352 18.7963C0.886578 17.9046 1.08291 17.0211 1.32359 16.1492C1.42178 15.378 1.55921 14.6123 1.73535 13.8551L2.52947 12.9728C2.58063 12.0593 2.8215 11.1664 3.23674 10.3512C3.65197 9.53588 4.23246 8.81603 4.94123 8.23746L4.82359 7.20805H6.00006C6.00006 7.20805 24.1177 1.61982 35.7059 1.61982C38.8934 1.4737 42.0849 1.80078 45.1765 2.5904C47.1177 3.29629 58.0295 9.06099 58.0295 9.06099C58.0295 9.06099 72.353 9.64923 77.2353 14.4139L77.0001 16.3257L77.8824 17.1492V21.3551C77.8824 21.6492 78.0001 22.4728 75.1471 23.0316H70.1765" fill="white"/>
<path d="M70.1765 23.7658C69.9815 23.7658 69.7944 23.6883 69.6565 23.5504C69.5186 23.4125 69.4412 23.2255 69.4412 23.0305C69.4412 22.8354 69.5186 22.6484 69.6565 22.5105C69.7944 22.3726 69.9815 22.2952 70.1765 22.2952H75.1176C76.4706 22.001 77.1176 21.6481 77.1176 21.4128V17.4716L76.4706 16.8834C76.3815 16.8029 76.3135 16.7019 76.2725 16.5891C76.2315 16.4763 76.2187 16.3552 76.2353 16.2363L76.4412 14.7069C71.5588 10.3834 58.0882 9.82457 57.9706 9.79516C57.8596 9.8013 57.7488 9.78114 57.6471 9.73634L44.9118 3.26575C41.9048 2.51123 38.8014 2.21377 35.7059 2.3834C24.3529 2.3834 6.41176 7.85399 6.23529 7.91281C6.1687 7.93365 6.09918 7.94358 6.02941 7.94222H5.64706L5.67647 8.1481C5.69137 8.27678 5.67202 8.4071 5.62038 8.52589C5.56873 8.64468 5.48662 8.74772 5.38235 8.82457C4.75816 9.33713 4.24561 9.97216 3.87634 10.6905C3.50706 11.4088 3.28889 12.1952 3.23529 13.001C3.23266 13.1878 3.15905 13.3666 3.02941 13.501L2.38235 14.2069C2.26471 14.6187 2.08823 15.5893 2.02941 16.2069C1.78791 17.0587 1.59156 17.9227 1.44118 18.7952C1.48984 19.0528 1.5792 19.301 1.70588 19.5305C4.00052 20.2475 6.33862 20.8173 8.70588 21.2363C8.90089 21.2753 9.07242 21.3902 9.18274 21.5557C9.29306 21.7212 9.33312 21.9237 9.29412 22.1187C9.25511 22.3137 9.14024 22.4852 8.97477 22.5956C8.80929 22.7059 8.60678 22.7459 8.41176 22.7069C5.88113 22.2525 3.38497 21.6236 0.941176 20.8246C0.776386 20.7552 0.641098 20.6304 0.558823 20.4716C0.250239 19.9506 0.0594975 19.3684 0 18.7658C0.13727 17.8133 0.333728 16.8703 0.588235 15.9422C0.688318 15.1498 0.83564 14.3641 1.02941 13.5893C1.06821 13.4892 1.12845 13.3989 1.20588 13.3246L1.79412 12.6775C1.95702 10.8515 2.79619 9.15219 4.14706 7.91281L4.08823 7.32457C4.07351 7.2196 4.08166 7.11268 4.11212 7.01115C4.14258 6.90962 4.19463 6.81587 4.2647 6.73634C4.33304 6.65428 4.41843 6.5881 4.51494 6.54239C4.61144 6.49668 4.71675 6.47253 4.82353 6.47163H5.91176C7.55882 5.97163 24.4412 0.883397 35.7059 0.883397C38.9734 0.711551 42.2479 1.04892 45.4118 1.8834C47.2647 2.58928 56.8235 7.61869 58.2059 8.35399C59.9118 8.41281 72.9118 9.17752 77.7353 13.8834C77.8106 13.9604 77.8681 14.053 77.9036 14.1546C77.9392 14.2563 77.952 14.3645 77.9412 14.4716L77.7353 16.0305L78.3235 16.6187C78.3966 16.6864 78.4551 16.7682 78.4955 16.8592C78.536 16.9503 78.5575 17.0485 78.5588 17.1481V21.354C78.5882 22.5305 77.5588 23.2952 75.2353 23.7658H70.1765Z" fill="#053361"/>
<path d="M39.3824 31.2943C58.0951 31.2943 73.2647 30.5438 73.2647 29.6179C73.2647 28.692 58.0951 27.9414 39.3824 27.9414C20.6696 27.9414 5.5 28.692 5.5 29.6179C5.5 30.5438 20.6696 31.2943 39.3824 31.2943Z" fill="#DEDFE0"/>
<path d="M15.0291 28.8824C18.5864 28.8824 21.4702 25.9985 21.4702 22.4412C21.4702 18.8838 18.5864 16 15.0291 16C11.4717 16 8.58789 18.8838 8.58789 22.4412C8.58789 25.9985 11.4717 28.8824 15.0291 28.8824Z" fill="#DEDFE0"/>
<path d="M15.029 29.6498C13.6096 29.6498 12.2221 29.2289 11.042 28.4404C9.86182 27.6518 8.94199 26.531 8.39882 25.2197C7.85565 23.9083 7.71353 22.4654 7.99044 21.0733C8.26734 19.6812 8.95083 18.4025 9.95448 17.3988C10.9581 16.3952 12.2369 15.7117 13.629 15.4348C15.0211 15.1579 16.464 15.3 17.7753 15.8432C19.0867 16.3863 20.2075 17.3062 20.996 18.4863C21.7846 19.6665 22.2055 21.054 22.2055 22.4733C22.1977 24.3743 21.4392 26.1952 20.095 27.5393C18.7508 28.8835 16.9299 29.6421 15.029 29.6498V29.6498ZM15.029 16.7086C13.9018 16.7087 12.7998 17.0426 11.8621 17.6683C10.9244 18.2939 10.1931 19.1833 9.76034 20.2242C9.32762 21.2651 9.21292 22.4109 9.43071 23.5169C9.6485 24.6229 10.189 25.6397 10.9841 26.4388C11.7791 27.2379 12.793 27.7837 13.8979 28.0072C15.0028 28.2306 16.1491 28.1218 17.1923 27.6945C18.2354 27.2671 19.1285 26.5404 19.759 25.6059C20.3895 24.6715 20.7291 23.5712 20.7349 22.4439C20.7349 20.9279 20.1347 19.4736 19.0655 18.3988C17.9963 17.3241 16.545 16.7164 15.029 16.7086V16.7086Z" fill="#053361"/>
<path d="M15.029 26.1186C17.0595 26.1186 18.7055 24.4726 18.7055 22.4421C18.7055 20.4116 17.0595 18.7656 15.029 18.7656C12.9986 18.7656 11.3525 20.4116 11.3525 22.4421C11.3525 24.4726 12.9986 26.1186 15.029 26.1186Z" fill="white"/>
<path d="M15.0296 26.501C14.5785 26.4956 14.1313 26.4161 13.706 26.2657C12.9456 26.0051 12.2796 25.5246 11.7926 24.8851C11.3056 24.2456 11.0195 23.4759 10.9704 22.6735C10.9214 21.8712 11.1118 21.0723 11.5173 20.3783C11.9228 19.6843 12.5253 19.1263 13.2484 18.7751C13.9715 18.4239 14.7825 18.2953 15.5788 18.4056C16.375 18.5159 17.1205 18.8602 17.7209 19.3947C18.3212 19.9293 18.7493 20.6301 18.9509 21.4082C19.1524 22.1864 19.1184 23.0069 18.8531 23.7657C18.6856 24.2519 18.426 24.7013 18.0884 25.0892C18.0576 25.1241 18.0202 25.1526 17.9783 25.173C17.9364 25.1933 17.891 25.2052 17.8445 25.208C17.798 25.2107 17.7515 25.2042 17.7075 25.1889C17.6636 25.1735 17.6231 25.1497 17.5884 25.1186C17.5468 25.0899 17.512 25.0526 17.4861 25.0092C17.4602 24.9659 17.4439 24.9175 17.4384 24.8673C17.4328 24.8171 17.438 24.7663 17.4538 24.7184C17.4695 24.6704 17.4953 24.6263 17.5296 24.5892C18.0588 23.9662 18.3398 23.1701 18.3191 22.353C18.2983 21.5358 17.9771 20.755 17.4169 20.1598C16.8568 19.5645 16.0969 19.1965 15.2825 19.1262C14.4681 19.0559 13.6564 19.2882 13.0025 19.7786C12.3486 20.2691 11.8983 20.9833 11.7378 21.7848C11.5773 22.5862 11.7177 23.4188 12.1323 24.1232C12.5469 24.8277 13.2066 25.3546 13.9852 25.6034C14.7639 25.8521 15.6069 25.8052 16.3531 25.4716C16.4431 25.4306 16.5454 25.4261 16.6386 25.459C16.7319 25.4919 16.8087 25.5597 16.8531 25.648C16.8724 25.6944 16.8824 25.7441 16.8825 25.7943C16.8826 25.8445 16.8728 25.8942 16.8537 25.9407C16.8346 25.9871 16.8065 26.0293 16.7711 26.0649C16.7356 26.1005 16.6935 26.1287 16.6472 26.148C16.1382 26.3764 15.5874 26.4966 15.0296 26.501V26.501Z" fill="#053361"/>
<path d="M63.7351 28.8824C67.2925 28.8824 70.1763 25.9985 70.1763 22.4412C70.1763 18.8838 67.2925 16 63.7351 16C60.1778 16 57.2939 18.8838 57.2939 22.4412C57.2939 25.9985 60.1778 28.8824 63.7351 28.8824Z" fill="#DEDFE0"/>
<path d="M63.7058 29.6498C62.2864 29.6498 60.8989 29.2289 59.7187 28.4404C58.5386 27.6518 57.6187 26.531 57.0756 25.2197C56.5324 23.9083 56.3903 22.4654 56.6672 21.0733C56.9441 19.6812 57.6276 18.4025 58.6312 17.3988C59.6349 16.3952 60.9136 15.7117 62.3057 15.4348C63.6978 15.1579 65.1408 15.3 66.4521 15.8432C67.7634 16.3863 68.8842 17.3062 69.6728 18.4863C70.4613 19.6665 70.8822 21.054 70.8822 22.4733C70.8745 24.3743 70.1159 26.1952 68.7717 27.5393C67.4276 28.8835 65.6067 29.6421 63.7058 29.6498V29.6498ZM63.7058 16.7086C62.5785 16.7087 61.4765 17.0426 60.5388 17.6683C59.6012 18.2939 58.8698 19.1833 58.4371 20.2242C58.0044 21.2651 57.8897 22.4109 58.1075 23.5169C58.3253 24.6229 58.8658 25.6397 59.6608 26.4388C60.4559 27.2379 61.4698 27.7837 62.5747 28.0072C63.6796 28.2306 64.8259 28.1218 65.869 27.6945C66.9121 27.2671 67.8053 26.5404 68.4358 25.6059C69.0663 24.6715 69.4058 23.5712 69.4117 22.4439C69.4117 20.9279 68.8115 19.4736 67.7422 18.3988C66.673 17.3241 65.2218 16.7164 63.7058 16.7086V16.7086Z" fill="#053361"/>
<path d="M63.7351 26.1186C65.7655 26.1186 67.4115 24.4726 67.4115 22.4421C67.4115 20.4116 65.7655 18.7656 63.7351 18.7656C61.7046 18.7656 60.0586 20.4116 60.0586 22.4421C60.0586 24.4726 61.7046 26.1186 63.7351 26.1186Z" fill="white"/>
<path d="M63.7055 26.4722C63.1121 26.4745 62.5254 26.3466 61.9868 26.0976C61.4481 25.8486 60.9706 25.4845 60.5879 25.031C60.5537 24.9938 60.5278 24.9498 60.5121 24.9018C60.4964 24.8539 60.4911 24.8031 60.4967 24.7529C60.5023 24.7027 60.5185 24.6543 60.5444 24.6109C60.5703 24.5676 60.6052 24.5303 60.6467 24.5016C60.7231 24.4492 60.8158 24.4263 60.9078 24.4371C60.9997 24.4479 61.0846 24.4917 61.1467 24.5604C61.6217 25.1331 62.2751 25.5299 63.0023 25.6872C63.7296 25.8445 64.4886 25.7533 65.1578 25.428C65.827 25.1028 66.3677 24.5624 66.6933 23.8934C67.019 23.2244 67.1107 22.4654 66.9538 21.7381C66.7969 21.0108 66.4005 20.3571 65.8281 19.8818C65.2556 19.4065 64.5402 19.137 63.7965 19.1166C63.0527 19.0961 62.3236 19.3258 61.7258 19.7689C61.1281 20.2119 60.6963 20.8428 60.4997 21.5604C60.4894 21.6075 60.4697 21.652 60.4416 21.6912C60.4135 21.7304 60.3777 21.7634 60.3363 21.7882C60.295 21.813 60.249 21.8291 60.2012 21.8354C60.1534 21.8418 60.1049 21.8382 60.0585 21.8251C60.0079 21.8155 59.9601 21.795 59.9184 21.765C59.8766 21.735 59.8419 21.6962 59.8167 21.6514C59.7914 21.6066 59.7763 21.5568 59.7724 21.5055C59.7684 21.4542 59.7757 21.4027 59.7938 21.3545C59.9914 20.6233 60.3897 19.9619 60.9436 19.4452C61.4975 18.9286 62.1849 18.5772 62.9282 18.4309C63.6714 18.2846 64.4407 18.3492 65.1491 18.6174C65.8575 18.8856 66.4767 19.3467 66.9367 19.9485C67.3967 20.5503 67.6792 21.2688 67.752 22.0228C67.8249 22.7767 67.6854 23.5361 67.3492 24.2148C67.013 24.8936 66.4935 25.4648 65.8496 25.8637C65.2057 26.2626 64.463 26.4734 63.7055 26.4722V26.4722ZM60.1761 23.7663C60.0934 23.7621 60.0142 23.7312 59.9506 23.6781C59.8869 23.6251 59.8422 23.5528 59.8232 23.4722C59.761 23.2213 59.7217 22.9654 59.7055 22.7075C59.7015 22.6611 59.7067 22.6144 59.7208 22.57C59.7349 22.5256 59.7577 22.4845 59.7877 22.4489C59.8178 22.4134 59.8546 22.3842 59.896 22.3629C59.9374 22.3417 59.9827 22.3288 60.0291 22.3251C60.0793 22.3211 60.1298 22.327 60.1778 22.3426C60.2257 22.3582 60.2701 22.3831 60.3084 22.4159C60.3466 22.4487 60.378 22.4888 60.4008 22.5338C60.4235 22.5787 60.4371 22.6278 60.4408 22.678C60.4499 22.8863 60.4795 23.0932 60.5291 23.2957C60.5562 23.3932 60.5436 23.4975 60.494 23.5857C60.4444 23.6739 60.3618 23.7388 60.2644 23.7663C60.2351 23.77 60.2054 23.77 60.1761 23.7663ZM24.7055 3.47216C24.5501 3.47411 24.3981 3.42677 24.2713 3.33694C24.1445 3.24711 24.0494 3.11941 23.9997 2.97216L23.6173 1.70745C23.5853 1.59787 23.5793 1.48235 23.5998 1.37004C23.6202 1.25773 23.6665 1.15172 23.7349 1.0604C23.7999 0.965384 23.888 0.888508 23.9909 0.837042C24.0939 0.785575 24.2082 0.76122 24.3232 0.766279C25.5705 0.754141 26.7917 1.12359 27.8232 1.8251C27.9636 1.96161 28.044 2.1483 28.0468 2.34411C28.0495 2.53993 27.9744 2.72881 27.8379 2.86922C27.7014 3.00963 27.5147 3.09006 27.3189 3.09282C27.1231 3.09557 26.9342 3.02043 26.7938 2.88393C26.3594 2.575 25.8531 2.3826 25.3232 2.3251L25.382 2.5604C25.4293 2.73971 25.4071 2.93026 25.3198 3.09389C25.2325 3.25751 25.0867 3.38212 24.9114 3.44275C24.8454 3.47064 24.7763 3.4904 24.7055 3.50157V3.47216Z" fill="#053361"/>
<path d="M16.9414 7.58974L18.2355 6.58974C25.4151 4.75063 32.8382 4.04603 40.2355 4.5015C45.6166 5.32703 50.7261 7.41319 55.1473 10.5897L24.6767 8.82503C23.5002 8.82503 16.9414 7.64856 16.9414 7.64856V7.58974Z" fill="#DEDFE0"/>
<path d="M55.1177 11.2984H55.0883L24.6765 9.53372C23.5 9.53372 17.4706 8.41608 16.7942 8.29843C16.6587 8.26787 16.5347 8.1996 16.4365 8.1015C16.3382 8.00341 16.2698 7.87951 16.239 7.74413C16.2082 7.60874 16.2164 7.46742 16.2626 7.33649C16.3088 7.20557 16.3911 7.0904 16.5 7.00431L17.7647 6.00431C17.8439 5.94722 17.934 5.90716 18.0295 5.88667C25.2919 4.00553 32.8073 3.29073 40.2942 3.76902C45.7852 4.6278 51.0012 6.75245 55.5294 9.9749C55.6637 10.0616 55.7661 10.1897 55.8211 10.3398C55.8761 10.4899 55.8806 10.6538 55.8341 10.8068C55.7876 10.9597 55.6924 11.0933 55.5632 11.1873C55.4339 11.2813 55.2775 11.3307 55.1177 11.3278V11.2984ZM18.8824 7.15137L24.6765 8.03373C25.6471 8.03373 44.5883 9.21019 52.1471 9.68078C48.5134 7.34843 44.4211 5.82384 40.1471 5.2102C33.0013 4.76597 25.8296 5.42065 18.8824 7.15137V7.15137Z" fill="#053361"/>
<path d="M30.7649 18.3559C30.6807 18.3571 30.5988 18.3281 30.534 18.2742C30.4693 18.2202 30.426 18.1449 30.412 18.0618C29.3381 12.8089 28.8645 7.45104 29.0002 2.09122C29.0076 1.995 29.0512 1.90514 29.1221 1.83968C29.193 1.77422 29.2861 1.738 29.3826 1.73828C29.4315 1.73811 29.4799 1.74812 29.5248 1.76767C29.5696 1.78721 29.6099 1.81587 29.6431 1.85183C29.6763 1.88778 29.7017 1.93025 29.7176 1.97652C29.7335 2.0228 29.7396 2.07188 29.7355 2.12064C29.6079 7.42177 30.0815 12.7203 31.1473 17.9148C31.1653 17.9629 31.1726 18.0144 31.1687 18.0657C31.1647 18.117 31.1496 18.1668 31.1244 18.2116C31.0992 18.2564 31.0645 18.2952 31.0227 18.3252C30.9809 18.3552 30.9331 18.3758 30.8826 18.3853C30.8533 18.3898 30.8236 18.3898 30.7943 18.3853L30.7649 18.3559ZM35.1767 11.7677H32.2355C32.1786 11.784 32.1187 11.7868 32.0605 11.7759C32.0023 11.7651 31.9475 11.7409 31.9002 11.7053C31.853 11.6697 31.8147 11.6235 31.7883 11.5706C31.7619 11.5176 31.7481 11.4592 31.7481 11.4C31.7481 11.3409 31.7619 11.2825 31.7883 11.2295C31.8147 11.1766 31.853 11.1304 31.9002 11.0948C31.9475 11.0592 32.0023 11.035 32.0605 11.0242C32.1187 11.0133 32.1786 11.0161 32.2355 11.0324H35.2355C35.3154 11.0552 35.3857 11.1035 35.4357 11.1698C35.4858 11.2361 35.5128 11.317 35.5128 11.4C35.5128 11.4831 35.4858 11.564 35.4357 11.6303C35.3857 11.6966 35.3154 11.7449 35.2355 11.7677H35.1767ZM49.5884 11.1206H51.7943C52.0232 11.113 52.2402 11.0167 52.3993 10.852C52.5585 10.6874 52.6474 10.4673 52.6473 10.2383C52.6323 10.0146 52.5328 9.80501 52.3689 9.65206C52.205 9.4991 51.9891 9.41425 51.7649 9.41475H49.5884V11.1206Z" fill="#053361"/>
<path d="M51.7946 11.8251H49.5887C49.3937 11.8251 49.2067 11.7477 49.0688 11.6098C48.9309 11.4719 48.8534 11.2848 48.8534 11.0898V9.32513C48.8534 9.13012 48.9309 8.94309 49.0688 8.8052C49.2067 8.6673 49.3937 8.58983 49.5887 8.58983H51.7652C52.1864 8.58983 52.5904 8.75716 52.8882 9.05502C53.1861 9.35287 53.3534 9.75684 53.3534 10.1781C53.3534 10.5993 53.1861 11.0033 52.8882 11.3011C52.5904 11.599 52.1864 11.7663 51.7652 11.7663L51.7946 11.8251ZM50.324 10.3545H51.7946V10.1192H50.324V10.3545ZM18.0593 7.70748L15.324 7.17807ZM18.0593 8.44277C18.0104 8.44789 17.9611 8.44789 17.9123 8.44277L15.2064 7.91336C15.0287 7.86483 14.8757 7.75137 14.7776 7.59542C14.6796 7.43947 14.6436 7.2524 14.6769 7.07121C14.7102 6.89003 14.8102 6.72794 14.9573 6.61702C15.1044 6.50609 15.2877 6.4544 15.4711 6.47219L18.177 7.0016C18.372 7.0172 18.5528 7.10963 18.6797 7.25856C18.8065 7.40748 18.869 7.60071 18.8534 7.79572C18.8378 7.99073 18.7454 8.17156 18.5965 8.29842C18.4476 8.42528 18.2543 8.48779 18.0593 8.47219V8.44277ZM76.9417 16.6781C76.9124 16.6825 76.8827 16.6825 76.8534 16.6781C76.7064 16.6192 73.2064 15.5898 72.4417 15.2075C71.7358 14.8251 69.4123 13.2369 69.2946 13.1487C69.2386 13.1043 69.1974 13.044 69.1764 12.9758C69.1554 12.9075 69.1556 12.8345 69.177 12.7663C69.2358 12.5604 69.4711 12.4722 69.6475 12.4722C72.2816 12.5879 74.8815 13.1139 77.3534 14.031C77.4116 14.0394 77.4671 14.0611 77.5156 14.0945C77.564 14.1278 77.6041 14.1719 77.6328 14.2232C77.6614 14.2746 77.6778 14.3319 77.6807 14.3906C77.6836 14.4494 77.6729 14.508 77.6495 14.5619C77.626 14.6158 77.5905 14.6636 77.5455 14.7016C77.5006 14.7395 77.4475 14.7666 77.3904 14.7807C77.3333 14.7948 77.2737 14.7955 77.2163 14.7828C77.1589 14.7701 77.1052 14.7443 77.0593 14.7075C75.0268 13.97 72.914 13.4763 70.7652 13.2369L72.7652 14.5604C73.4711 14.8545 77.0299 15.9134 77.0593 15.9428C77.1064 15.953 77.1509 15.9728 77.1901 16.0009C77.2293 16.0289 77.2623 16.0648 77.2871 16.1061C77.3119 16.1474 77.328 16.1934 77.3343 16.2412C77.3407 16.289 77.3372 16.3376 77.324 16.384C77.2997 16.4591 77.2528 16.5249 77.1896 16.5723C77.1264 16.6197 77.05 16.6464 76.9711 16.6487L76.9417 16.6781ZM57.3534 23.5604H25.4123C25.2172 23.5604 25.0302 23.483 24.8923 23.3451C24.7544 23.2072 24.677 23.0201 24.677 22.8251C24.677 22.6301 24.7544 22.4431 24.8923 22.3052C25.0302 22.1673 25.2172 22.0898 25.4123 22.0898H57.3534C57.5484 22.0898 57.7355 22.1673 57.8734 22.3052C58.0113 22.4431 58.0887 22.6301 58.0887 22.8251C58.0887 23.0201 58.0113 23.2072 57.8734 23.3451C57.7355 23.483 57.5484 23.5604 57.3534 23.5604V23.5604ZM2.52991 13.3545C2.45365 13.3395 2.38379 13.3015 2.32965 13.2457C2.27551 13.1899 2.23966 13.119 2.22688 13.0423C2.2141 12.9656 2.225 12.8869 2.25812 12.8165C2.29124 12.7462 2.34501 12.6876 2.41226 12.6487L4.17697 12.0016C4.21585 11.9944 4.25573 11.9944 4.29461 12.0016C5.20631 11.8795 6.07993 11.5582 6.85344 11.0604C7.57237 10.5826 8.26916 10.0722 8.94167 9.53101L5.82403 7.53101C5.76525 7.51685 5.71068 7.48894 5.66478 7.4496C5.61888 7.41025 5.58296 7.36058 5.55998 7.30466C5.53699 7.24875 5.5276 7.18818 5.53256 7.12792C5.53752 7.06767 5.5567 7.00945 5.58852 6.95805C5.62034 6.90665 5.6639 6.86352 5.71562 6.83221C5.76734 6.8009 5.82574 6.78231 5.88604 6.77795C5.94634 6.77358 6.00681 6.78359 6.0625 6.80713C6.11818 6.83067 6.16749 6.86707 6.20638 6.91336L9.73579 9.17807C9.78789 9.20509 9.83243 9.24468 9.86538 9.29326C9.89833 9.34183 9.91864 9.39786 9.92448 9.45626C9.93032 9.51466 9.92151 9.5736 9.89883 9.62773C9.87615 9.68187 9.84033 9.7295 9.79461 9.7663C8.97915 10.4522 8.12479 11.0906 7.23579 11.6781C6.37319 12.2291 5.39855 12.5808 4.38285 12.7075L2.61814 13.2957C2.59016 13.3094 2.56049 13.3193 2.52991 13.3251V13.3545Z" fill="#053361"/>
<path d="M4.29417 12.3541C5.27008 12.2329 6.20554 11.8909 7.02947 11.3541C7.90806 10.7757 8.7526 10.1473 9.55888 9.47174L6.02947 7.20703H4.853L4.97065 8.23644L6.05888 9.6188L4.29417 12.3541ZM7.82359 15.7364C7.78287 15.7341 7.74295 15.7242 7.70594 15.707L3.41182 14.3541L1.73535 14.1776L1.79418 13.4717L3.50006 13.6188C3.97065 13.6482 7.32359 14.7953 7.97065 15.0012C8.05051 15.0338 8.11697 15.0925 8.15924 15.1677C8.20151 15.243 8.2171 15.3303 8.20346 15.4155C8.18983 15.5007 8.14779 15.5787 8.08416 15.637C8.02053 15.6953 7.93906 15.7303 7.853 15.7364H7.82359ZM54.5883 20.6482H21.2354C21.1555 20.6254 21.0852 20.5772 21.0351 20.5108C20.9851 20.4445 20.958 20.3637 20.958 20.2806C20.958 20.1975 20.9851 20.1166 21.0351 20.0503C21.0852 19.984 21.1555 19.9357 21.2354 19.9129H54.3824C54.9344 18.1001 55.3667 16.253 55.6765 14.3835C55.806 13.12 55.5166 11.8489 54.853 10.7659C54.8329 10.6902 54.8365 10.6101 54.8634 10.5365C54.8903 10.463 54.9391 10.3994 55.0033 10.3545C55.0674 10.3096 55.1439 10.2854 55.2222 10.2854C55.3005 10.2853 55.377 10.3093 55.4412 10.3541C56.2191 11.5782 56.5611 13.0291 56.4118 14.4717C56.0776 16.4821 55.6059 18.4671 55.0001 20.4129C54.9763 20.4803 54.9326 20.5388 54.8748 20.5808C54.8171 20.6228 54.7479 20.6463 54.6765 20.6482H54.5883ZM73.7059 15.3541L72.5883 14.9423C71.9412 14.56 69.5001 12.8835 69.5001 12.8835C70.7453 12.8809 71.9874 13.0091 73.2059 13.2659C73.4248 13.6023 73.5932 13.9689 73.7059 14.3541C73.727 14.6871 73.727 15.0211 73.7059 15.3541ZM77.8236 20.6482H69.7942C69.7143 20.6254 69.644 20.5772 69.594 20.5108C69.5439 20.4445 69.5168 20.3637 69.5168 20.2806C69.5168 20.1975 69.5439 20.1166 69.594 20.0503C69.644 19.984 69.7143 19.9357 69.7942 19.9129H77.8236C77.9035 19.9357 77.9738 19.984 78.0238 20.0503C78.0738 20.1166 78.1009 20.1975 78.1009 20.2806C78.1009 20.3637 78.0738 20.4445 78.0238 20.5108C77.9738 20.5772 77.9035 20.6254 77.8236 20.6482V20.6482Z" fill="#053361"/>
</svg>
