<svg width="78" height="30" viewBox="0 0 78 30" fill="none" xmlns="http://www.w3.org/2000/svg">
<path d="M10.2651 22.0023L4.3827 20.767C3.52928 20.3175 2.76248 19.7199 2.11799 19.0023C2.0048 18.6211 1.96488 18.2219 2.00034 17.8258C1.71713 16.21 1.52077 14.5803 1.41211 12.9435C1.57185 12.1191 2.02026 11.3787 2.67682 10.8552C3.01283 10.2427 3.18505 9.55381 3.17682 8.85523C3.19468 8.67897 3.27097 8.51374 3.39354 8.38584C3.51612 8.25793 3.67795 8.17468 3.85329 8.14934C6.88643 7.56525 9.95013 7.15283 13.0298 6.91405C14.8412 6.94664 16.6487 7.09399 18.4415 7.35522L24.7062 8.47287L43.5298 8.76699L36.5592 3.23758C36.3533 3.09052 35.9121 2.41405 36.265 1.91405C36.4064 1.72254 36.6114 1.58772 36.8432 1.53381C37.075 1.4799 37.3184 1.51043 37.5298 1.61993C37.9121 1.73758 48.5886 7.88463 48.5886 7.88463L62.3239 8.76699C64.4415 9.00228 73.1474 11.1788 77.0886 15.3258C77.5297 15.767 76.7062 16.6788 76.7062 16.6788C76.8543 18.0465 76.874 19.425 76.765 20.7964C76.6703 21.2818 76.5223 21.7552 76.3239 22.2082C74.2238 22.4481 72.1045 22.4678 70.0003 22.267" fill="white"/>
<path d="M72.3238 23.149C71.4976 23.1701 70.6711 23.1209 69.8532 23.002C69.7557 22.9845 69.6628 22.9475 69.58 22.8932C69.4971 22.8389 69.4261 22.7685 69.3712 22.6861C69.3162 22.6037 69.2785 22.511 69.2603 22.4137C69.242 22.3163 69.2436 22.2163 69.265 22.1196C69.2789 22.0233 69.3125 21.9309 69.3637 21.8482C69.415 21.7655 69.4828 21.6943 69.5629 21.6391C69.643 21.5839 69.7337 21.5458 69.8292 21.5272C69.9247 21.5087 70.023 21.5101 70.1179 21.5314C72.0047 21.7326 73.9076 21.7326 75.7944 21.5314L76.0297 20.649C76.1399 19.3464 76.1202 18.036 75.9709 16.7373C75.9604 16.637 75.9707 16.5356 76.001 16.4395C76.0314 16.3434 76.0812 16.2545 76.1473 16.1784C76.2635 16.0443 76.3623 15.8961 76.4415 15.7373C72.6179 11.7961 64.265 9.73726 62.2356 9.50196C60.2062 9.26667 48.6473 8.61961 48.5297 8.61961C48.4243 8.60223 48.3239 8.56208 48.2356 8.50196L37.2356 2.32549C36.9415 2.23726 36.9415 2.29608 36.8826 2.3549C36.901 2.4831 36.9516 2.60455 37.0297 2.70784L44.0003 8.20785C44.1125 8.30343 44.1933 8.43052 44.2324 8.57262C44.2715 8.71473 44.2669 8.8653 44.2194 9.00479C44.1718 9.14429 44.0834 9.26628 43.9657 9.35493C43.848 9.44358 43.7063 9.49481 43.5591 9.50196C40.765 9.64902 29.2944 9.47255 24.6473 9.20785C23.6888 9.10101 22.7365 8.94394 21.7944 8.73726L18.3532 8.0902C16.5991 7.84007 14.8308 7.70253 13.0591 7.67843C10.2649 7.87053 7.48521 8.23396 4.73558 8.76667L3.94146 8.91373C3.9407 9.77768 3.69602 10.6239 3.23558 11.3549L3.00029 11.649C2.54991 11.9891 2.23676 12.4797 2.11793 13.0314C2.1932 14.3146 2.35038 15.5917 2.58852 16.8549L2.73558 17.8843C2.72043 18.1488 2.72043 18.4139 2.73558 18.6784C3.28755 19.2705 3.93349 19.7674 4.64735 20.149C6.54765 20.639 8.47172 21.0317 10.4121 21.3255C10.5095 21.343 10.6025 21.38 10.6853 21.4342C10.7682 21.4885 10.8392 21.559 10.8941 21.6414C10.949 21.7238 10.9868 21.8164 11.005 21.9138C11.0233 22.0111 11.0216 22.1111 11.0003 22.2078C10.9864 22.3041 10.9528 22.3965 10.9015 22.4792C10.8503 22.5619 10.7825 22.6331 10.7024 22.6884C10.6223 22.7436 10.5316 22.7817 10.4361 22.8002C10.3406 22.8187 10.2423 22.8173 10.1473 22.7961C8.10586 22.4744 6.08329 22.0424 4.08852 21.502C3.13102 21.0068 2.27344 20.3387 1.55911 19.5314C1.26499 19.2373 1.26499 18.7667 1.26499 17.9431L1.14735 17.0608C0.877524 15.6837 0.720142 14.2869 0.676758 12.8843C0.795419 11.9797 1.24619 11.1515 1.94146 10.5608L2.14735 10.3549C2.14735 10.3255 2.35323 10.0608 2.44146 8.88431C2.46665 8.52805 2.61573 8.19184 2.86285 7.93398C3.10997 7.67612 3.43954 7.51287 3.79441 7.47255L4.47088 7.32549C7.28823 6.77733 10.1368 6.40406 13.0003 6.20784C14.8605 6.2417 16.7169 6.38904 18.5591 6.64902L22.0885 7.29608L24.7356 7.76667L41.5003 8.06079L36.1473 3.8549C35.7975 3.58601 35.557 3.1994 35.4705 2.76674C35.384 2.33408 35.4573 1.88472 35.6768 1.50196C35.8987 1.17234 36.2304 0.932257 36.6129 0.824519C36.9954 0.716782 37.4037 0.748398 37.765 0.913727C38.1473 1.06079 43.9415 4.3549 48.8238 7.17843L62.4121 8.06079C64.9709 8.3549 73.6474 10.5902 77.6474 14.8255C78.2356 15.4137 77.9415 16.2961 77.5003 16.8843C77.643 18.2335 77.643 19.594 77.5003 20.9431C77.3975 21.5001 77.2297 22.043 77.0003 22.5608C76.9419 22.6685 76.8574 22.7599 76.7547 22.8266C76.652 22.8934 76.5342 22.9335 76.4121 22.9431C76.2944 22.9726 74.2944 23.1784 72.3532 23.1784L72.3238 23.149Z" fill="#053361"/>
<path d="M40.1475 29.2358C58.649 29.2358 73.6475 28.4852 73.6475 27.5593C73.6475 26.6334 58.649 25.8828 40.1475 25.8828C21.6459 25.8828 6.64746 26.6334 6.64746 27.5593C6.64746 28.4852 21.6459 29.2358 40.1475 29.2358Z" fill="#DEDFE0"/>
<path d="M16.2063 26.8247C19.5525 26.8247 22.2651 24.1121 22.2651 20.7659C22.2651 17.4197 19.5525 14.707 16.2063 14.707C12.8601 14.707 10.1475 17.4197 10.1475 20.7659C10.1475 24.1121 12.8601 26.8247 16.2063 26.8247Z" fill="#DEDFE0"/>
<path d="M16.2063 27.5608C14.86 27.5666 13.5424 27.1724 12.4206 26.4281C11.2989 25.6838 10.4235 24.623 9.90562 23.3803C9.38774 22.1377 9.25072 20.7692 9.51194 19.4485C9.77315 18.1278 10.4208 16.9146 11.3728 15.9626C12.3247 15.0107 13.538 14.363 14.8587 14.1018C16.1793 13.8406 17.5478 13.9776 18.7905 14.4955C20.0331 15.0133 21.0939 15.8887 21.8382 17.0105C22.5825 18.1323 22.9768 19.4499 22.971 20.7961C22.9632 22.5879 22.2481 24.304 20.9811 25.5709C19.7141 26.8379 17.998 27.5531 16.2063 27.5608ZM16.2063 15.4432C15.1522 15.4374 14.12 15.7446 13.2407 16.326C12.3614 16.9074 11.6745 17.7368 11.2671 18.709C10.8596 19.6812 10.75 20.7525 10.9521 21.7871C11.1541 22.8217 11.6588 23.773 12.4022 24.5205C13.1455 25.2679 14.094 25.7779 15.1274 25.9857C16.1609 26.1935 17.2328 26.0898 18.2072 25.6878C19.1817 25.2857 20.0149 24.6034 20.6011 23.7273C21.1874 22.8513 21.5004 21.8209 21.5004 20.7667C21.4927 19.365 20.9324 18.0229 19.9413 17.0317C18.9501 16.0406 17.608 15.4803 16.2063 15.4726V15.4432Z" fill="#053361"/>
<path d="M16.2059 24.2381C18.1227 24.2381 19.6765 22.6842 19.6765 20.7675C19.6765 18.8507 18.1227 17.2969 16.2059 17.2969C14.2892 17.2969 12.7354 18.8507 12.7354 20.7675C12.7354 22.6842 14.2892 24.2381 16.2059 24.2381Z" fill="white"/>
<path d="M13.0294 22.1204C12.7384 21.4329 12.6768 20.6699 12.8538 19.9446C13.0308 19.2193 13.437 18.5705 14.012 18.0944C14.587 17.6182 15.3002 17.3402 16.0458 17.3015C16.7913 17.2629 17.5294 17.4657 18.1506 17.8798C18.7718 18.2939 19.2428 18.8972 19.4939 19.6003C19.745 20.3034 19.7626 21.0686 19.5443 21.7825C19.3259 22.4964 18.8832 23.1209 18.2818 23.5632C17.6804 24.0056 16.9524 24.2422 16.2059 24.238C15.4241 24.2344 14.6669 23.9647 14.0588 23.4733" fill="white"/>
<path d="M16.2063 24.6197C15.3384 24.614 14.4983 24.3132 13.824 23.7668C13.7553 23.7047 13.7115 23.6198 13.7007 23.5278C13.6899 23.4359 13.7128 23.3431 13.7652 23.2668C13.7939 23.2252 13.8312 23.1904 13.8745 23.1645C13.9179 23.1386 13.9663 23.1223 14.0165 23.1168C14.0667 23.1112 14.1174 23.1164 14.1654 23.1322C14.2134 23.1479 14.2574 23.1737 14.2946 23.208C14.8776 23.683 15.6139 23.929 16.3654 23.8998C17.1168 23.8706 17.8318 23.5682 18.3762 23.0493C18.9206 22.5304 19.2569 21.8307 19.322 21.0815C19.3872 20.3323 19.1767 19.585 18.7301 18.98C18.2835 18.3749 17.6315 17.9536 16.8963 17.7951C16.1612 17.6365 15.3934 17.7517 14.7372 18.119C14.0809 18.4863 13.5812 19.0804 13.3319 19.7899C13.0825 20.4994 13.1006 21.2756 13.3828 21.9727C13.4021 22.019 13.4121 22.0687 13.4122 22.1189C13.4123 22.1691 13.4025 22.2189 13.3834 22.2653C13.3643 22.3117 13.3362 22.3539 13.3008 22.3895C13.2654 22.4251 13.2233 22.4533 13.1769 22.4727C13.1313 22.4965 13.0809 22.5102 13.0294 22.5125C12.978 22.5149 12.9266 22.5059 12.8789 22.4863C12.8313 22.4667 12.7885 22.4368 12.7536 22.3989C12.7187 22.361 12.6925 22.3159 12.6769 22.2668C12.3613 21.5093 12.2978 20.6703 12.4957 19.8739C12.6936 19.0775 13.1426 18.366 13.7761 17.8444C14.4096 17.3228 15.1942 17.0189 16.0137 16.9775C16.8333 16.9362 17.6445 17.1596 18.3273 17.6148C19.0101 18.07 19.5283 18.7328 19.8054 19.5053C20.0824 20.2777 20.1036 21.1188 19.8658 21.9042C19.628 22.6896 19.1438 23.3777 18.4848 23.8667C17.8258 24.3557 17.027 24.6197 16.2063 24.6197V24.6197Z" fill="#053361"/>
<path d="M64.1174 26.8247C67.4636 26.8247 70.1762 24.1121 70.1762 20.7659C70.1762 17.4197 67.4636 14.707 64.1174 14.707C60.7712 14.707 58.0586 17.4197 58.0586 20.7659C58.0586 24.1121 60.7712 26.8247 64.1174 26.8247Z" fill="#DEDFE0"/>
<path d="M64.1174 27.5608C62.7712 27.5666 61.4536 27.1724 60.3318 26.4281C59.21 25.6838 58.3346 24.623 57.8167 23.3803C57.2989 22.1377 57.1619 20.7692 57.4231 19.4485C57.6843 18.1278 58.332 16.9146 59.2839 15.9626C60.2358 15.0107 61.4491 14.363 62.7698 14.1018C64.0905 13.8406 65.459 13.9776 66.7016 14.4955C67.9443 15.0133 69.0051 15.8887 69.7494 17.0105C70.4937 18.1323 70.8879 19.4499 70.8821 20.7961C70.8744 22.5879 70.1592 24.304 68.8922 25.5709C67.6253 26.8379 65.9091 27.5531 64.1174 27.5608ZM64.1174 15.4432C63.0633 15.4374 62.0312 15.7446 61.1518 16.326C60.2725 16.9074 59.5856 17.7368 59.1782 18.709C58.7708 19.6812 58.6611 20.7525 58.8632 21.7871C59.0653 22.8217 59.57 23.773 60.3133 24.5205C61.0566 25.2679 62.0051 25.7779 63.0386 25.9857C64.072 26.1935 65.1439 26.0898 66.1184 25.6878C67.0928 25.2857 67.926 24.6034 68.5123 23.7273C69.0985 22.8513 69.4115 21.8209 69.4115 20.7667C69.4038 19.365 68.8436 18.0229 67.8524 17.0317C66.8612 16.0406 65.5191 15.4803 64.1174 15.4726V15.4432Z" fill="#053361"/>
<path d="M64.1181 24.2381C66.0348 24.2381 67.5886 22.6842 67.5886 20.7675C67.5886 18.8507 66.0348 17.2969 64.1181 17.2969C62.2013 17.2969 60.6475 18.8507 60.6475 20.7675C60.6475 22.6842 62.2013 24.2381 64.1181 24.2381Z" fill="white"/>
<path d="M63.1182 17.4714C63.8261 17.2544 64.5851 17.2715 65.2826 17.5202C65.98 17.7689 66.5786 18.236 66.9895 18.852C67.4004 19.468 67.6016 20.2 67.5633 20.9395C67.525 21.6789 67.2492 22.3863 66.7769 22.9566C66.3046 23.5268 65.6609 23.9295 64.9415 24.1048C64.2221 24.2801 63.4654 24.2187 62.7837 23.9297C62.1019 23.6408 61.5316 23.1396 61.1574 22.5007C60.7832 21.8617 60.625 21.1191 60.7064 20.3832" fill="white"/>
<path d="M64.1175 24.6173C63.576 24.621 63.04 24.5095 62.5448 24.2904C62.0496 24.0713 61.6066 23.7495 61.2451 23.3463C60.8836 22.9431 60.6119 22.4677 60.4479 21.9516C60.284 21.4356 60.2315 20.8905 60.294 20.3526C60.2974 20.3034 60.3111 20.2554 60.3342 20.2118C60.3573 20.1682 60.3892 20.1299 60.4281 20.0994C60.4669 20.069 60.5116 20.0469 60.5595 20.0348C60.6073 20.0227 60.6571 20.0208 60.7058 20.0291C60.7966 20.0501 60.8765 20.1036 60.9307 20.1794C60.9848 20.2552 61.0095 20.3482 60.9999 20.4409C60.9597 20.8681 61.0098 21.299 61.1469 21.7056C61.3312 22.2871 61.6835 22.801 62.1594 23.1825C62.6354 23.5641 63.2136 23.7961 63.8213 23.8494C64.429 23.9026 65.0388 23.7747 65.5739 23.4818C66.1089 23.1889 66.5453 22.7441 66.8279 22.2036C67.1104 21.663 67.2266 21.0508 67.1617 20.4443C67.0968 19.8377 66.8537 19.264 66.4631 18.7955C66.0725 18.3269 65.5519 17.9846 64.967 17.8115C64.3821 17.6385 63.759 17.6426 63.1764 17.8232C63.0827 17.8517 62.9817 17.8432 62.8942 17.7994C62.8066 17.7556 62.7392 17.6799 62.7058 17.5879C62.6875 17.5418 62.6791 17.4923 62.6813 17.4427C62.6834 17.393 62.696 17.3444 62.7182 17.3C62.7404 17.2556 62.7717 17.2164 62.8101 17.1849C62.8485 17.1534 62.8932 17.1304 62.9411 17.1173C63.4615 16.97 64.0072 16.9347 64.5423 17.0138C65.0773 17.0929 65.5895 17.2847 66.045 17.5763C66.5005 17.868 66.8889 18.2531 67.1846 18.706C67.4802 19.1588 67.6765 19.6693 67.7603 20.2037C67.8441 20.738 67.8136 21.284 67.6708 21.8057C67.528 22.3274 67.2761 22.8128 66.9318 23.23C66.5876 23.6471 66.1587 23.9865 65.6736 24.2256C65.1884 24.4648 64.6581 24.5983 64.1175 24.6173V24.6173ZM58.4117 23.5291H25.7646C25.5696 23.5291 25.3826 23.4516 25.2447 23.3137C25.1068 23.1759 25.0293 22.9888 25.0293 22.7938C25.0293 22.5988 25.1068 22.4118 25.2447 22.2739C25.3826 22.136 25.5696 22.0585 25.7646 22.0585H58.4117C58.6067 22.0585 58.7937 22.136 58.9316 22.2739C59.0695 22.4118 59.1469 22.5988 59.1469 22.7938C59.1469 22.9888 59.0695 23.1759 58.9316 23.3137C58.7937 23.4516 58.6067 23.5291 58.4117 23.5291Z" fill="#053361"/>
<path d="M51.9999 9.82494L37.4999 1.58965C37.2918 1.48805 37.0549 1.46184 36.8296 1.51548C36.6043 1.56912 36.4046 1.69929 36.2646 1.88377C35.9117 2.38377 36.3823 3.06024 36.5588 3.2073L43.5294 8.7073H50.0588" fill="#DEDFE0"/>
<path d="M51.9999 10.5902C51.8767 10.5908 51.7553 10.5605 51.6469 10.502L49.8822 9.50196H43.5293C43.3566 9.50024 43.19 9.43776 43.0587 9.32549L36.1175 3.82549C35.775 3.55784 35.5394 3.17665 35.4531 2.75063C35.3668 2.32461 35.4356 1.88178 35.6469 1.50196C35.8688 1.17234 36.2006 0.932257 36.5831 0.824519C36.9655 0.716782 37.3738 0.748398 37.7352 0.913727C38.1175 1.03137 45.9116 5.50196 52.3528 9.20785C52.4971 9.28573 52.6112 9.40962 52.6771 9.55983C52.7429 9.71003 52.7566 9.87792 52.716 10.0368C52.6754 10.1957 52.5829 10.3365 52.4532 10.4367C52.3234 10.537 52.1638 10.591 51.9999 10.5902V10.5902ZM43.7646 8.03137H47.3528L37.2352 2.26667C36.941 2.17843 36.941 2.26667 36.8528 2.29608C36.8797 2.42714 36.9406 2.54884 37.0293 2.64902L43.794 8.00196L43.7646 8.03137ZM27.5881 9.20785C27.4739 9.20785 27.3614 9.18127 27.2593 9.13022C27.1572 9.07917 27.0683 9.00505 26.9999 8.91373L26.0587 7.64902C25.9534 7.49399 25.9114 7.30463 25.941 7.11961C26.1356 6.10928 26.1356 5.07111 25.941 4.06079C25.8949 4.03464 25.8454 4.01485 25.794 4.00196C25.6437 4.08175 25.4704 4.10695 25.3037 4.07329C25.1369 4.03962 24.987 3.94916 24.8794 3.81733C24.7719 3.6855 24.7134 3.52046 24.7139 3.35032C24.7144 3.18019 24.7739 3.0155 24.8822 2.88432C25.1597 2.64836 25.5148 2.52375 25.8788 2.53462C26.2429 2.54549 26.5899 2.69106 26.8528 2.94314C27.6763 3.53137 27.6469 5.41373 27.441 7.06079L28.1763 8.06079C28.2933 8.2168 28.3436 8.4129 28.316 8.60595C28.2884 8.799 28.1853 8.97319 28.0293 9.0902C27.903 9.18764 27.7475 9.23948 27.5881 9.23726V9.20785Z" fill="#053361"/>
<path d="M39 9.5887H41.1765C41.4105 9.5887 41.6349 9.49574 41.8004 9.33026C41.9659 9.16479 42.0588 8.94036 42.0588 8.70635C42.0439 8.48267 41.9444 8.27307 41.7805 8.12012C41.6166 7.96716 41.4006 7.88232 41.1765 7.88281H39V9.5887Z" fill="#053361"/>
<path d="M41.2061 10.2955H39.0296C38.8396 10.2957 38.6569 10.2222 38.5198 10.0906C38.3827 9.95904 38.3019 9.77949 38.2943 9.58962V7.88373C38.2943 7.68872 38.3718 7.5017 38.5097 7.3638C38.6476 7.22591 38.8346 7.14844 39.0296 7.14844H41.2061C41.6273 7.14844 42.0313 7.31577 42.3291 7.61362C42.627 7.91147 42.7943 8.31545 42.7943 8.73668C42.7943 9.1579 42.627 9.56187 42.3291 9.85973C42.0313 10.1576 41.6273 10.3249 41.2061 10.3249V10.2955ZM39.7355 8.82491H41.2061V8.61903H39.7355V8.82491ZM5.88257 12.119H1.85316C1.77326 12.0962 1.70297 12.048 1.65293 11.9816C1.60289 11.9153 1.57582 11.8345 1.57582 11.7514C1.57582 11.6683 1.60289 11.5875 1.65293 11.5211C1.70297 11.4548 1.77326 11.4066 1.85316 11.3837H5.76492L6.17668 11.0896C5.14398 10.6648 4.05344 10.3971 2.94139 10.2955C2.85061 10.2745 2.77063 10.2211 2.71647 10.1452C2.66231 10.0694 2.63771 9.97642 2.64727 9.88373C2.66178 9.79534 2.70936 9.71577 2.78036 9.66116C2.85136 9.60654 2.94047 9.58097 3.02963 9.58962C4.47135 9.66967 5.87304 10.0932 7.11786 10.8249C7.15779 10.8649 7.18833 10.9133 7.20731 10.9666C7.22628 11.0199 7.2332 11.0767 7.22757 11.1329C7.22195 11.1892 7.20391 11.2435 7.17477 11.292C7.14563 11.3404 7.1061 11.3818 7.05904 11.4131L6.05904 12.0602C5.99445 12.0888 5.92318 12.099 5.85316 12.0896L5.88257 12.119ZM72.7943 15.1779C72.765 15.1805 72.7354 15.1805 72.7061 15.1779C71.7515 14.6821 70.8624 14.0696 70.059 13.3543C70.0102 13.3163 69.9712 13.267 69.9456 13.2107C69.92 13.1543 69.9085 13.0926 69.912 13.0308C69.9168 12.9678 69.9385 12.9073 69.9747 12.8556C70.0109 12.8039 70.0604 12.7628 70.1179 12.7367C71.3407 12.3893 72.6206 12.2893 73.8826 12.4426C73.9616 12.4733 74.0282 12.5295 74.0718 12.6023C74.1154 12.675 74.1336 12.7602 74.1234 12.8444C74.1133 12.9286 74.0755 13.0071 74.0159 13.0674C73.9564 13.1278 73.8784 13.1666 73.7943 13.1779C72.8844 13.0841 71.9667 13.094 71.059 13.2073C71.605 13.6764 72.1961 14.0902 72.8237 14.4426C73.6499 14.3439 74.4385 14.0406 75.1179 13.5602C75.1909 13.5252 75.2732 13.5143 75.3528 13.5291C75.4325 13.5439 75.5054 13.5836 75.561 13.6425C75.6166 13.7014 75.6521 13.7764 75.6623 13.8568C75.6725 13.9372 75.657 14.0187 75.6179 14.0896C74.7961 14.6876 73.8335 15.0626 72.8237 15.1779H72.7943ZM29.1179 11.3543H26.1179C26.038 11.3315 25.9677 11.2833 25.9176 11.2169C25.8676 11.1506 25.8405 11.0698 25.8405 10.9867C25.8405 10.9036 25.8676 10.8228 25.9176 10.7564C25.9677 10.6901 26.038 10.6418 26.1179 10.619H29.1179C29.1978 10.6418 29.268 10.6901 29.3181 10.7564C29.3681 10.8228 29.3952 10.9036 29.3952 10.9867C29.3952 11.0698 29.3681 11.1506 29.3181 11.2169C29.268 11.2833 29.1978 11.3315 29.1179 11.3543V11.3543ZM10.2943 19.8837H10.2649C7.36272 19.4773 4.5192 18.7269 1.79433 17.6484C1.70463 17.6133 1.63254 17.544 1.59393 17.4558C1.55532 17.3675 1.55335 17.2676 1.58845 17.1779C1.62355 17.0881 1.69285 17.0161 1.7811 16.9774C1.86936 16.9388 1.96933 16.9369 2.05904 16.972C4.71337 17.9991 7.4764 18.7194 10.2943 19.119C10.3742 19.1419 10.4445 19.1901 10.4946 19.2564C10.5446 19.3228 10.5717 19.4036 10.5717 19.4867C10.5717 19.5698 10.5446 19.6506 10.4946 19.7169C10.4445 19.7833 10.3742 19.8315 10.2943 19.8543V19.8837ZM58.059 20.5896H22.2355C22.1658 20.5606 22.1063 20.5116 22.0644 20.4488C22.0226 20.386 22.0002 20.3122 22.0002 20.2367C22.0002 20.1612 22.0226 20.0874 22.0644 20.0246C22.1063 19.9618 22.1658 19.9128 22.2355 19.8837H58.059C58.1389 19.9066 58.2092 19.9548 58.2593 20.0211C58.3093 20.0875 58.3364 20.1683 58.3364 20.2514C58.3364 20.3345 58.3093 20.4153 58.2593 20.4816C58.2092 20.548 58.1389 20.5962 58.059 20.619V20.5896ZM73.6473 20.5896H70.2649C70.1952 20.5606 70.1357 20.5116 70.0938 20.4488C70.052 20.386 70.0296 20.3122 70.0296 20.2367C70.0296 20.1612 70.052 20.0874 70.0938 20.0246C70.1357 19.9618 70.1952 19.9128 70.2649 19.8837H73.6473C73.7042 19.8675 73.7641 19.8647 73.8223 19.8755C73.8804 19.8863 73.9353 19.9105 73.9825 19.9461C74.0298 19.9818 74.0681 20.0279 74.0945 20.0809C74.1209 20.1338 74.1346 20.1922 74.1346 20.2514C74.1346 20.3106 74.1209 20.3689 74.0945 20.4219C74.0681 20.4749 74.0298 20.521 73.9825 20.5566C73.9353 20.5923 73.8804 20.6164 73.8223 20.6273C73.7641 20.6381 73.7042 20.6353 73.6473 20.619V20.5896ZM26.5296 18.0896C26.475 18.0922 26.4205 18.083 26.3698 18.0627C26.3191 18.0424 26.2733 18.0115 26.2355 17.972C24.4944 15.9035 23.3729 13.3852 23.0002 10.7073C22.8826 9.53079 24.2943 8.2955 24.4708 8.14844C24.5494 8.08747 24.6486 8.05951 24.7474 8.07049C24.8463 8.08147 24.9369 8.13054 25.0002 8.20726C25.0296 8.24379 25.0514 8.2858 25.0643 8.33084C25.0773 8.37588 25.0811 8.42305 25.0756 8.4696C25.0702 8.51614 25.0555 8.56112 25.0324 8.60193C25.0094 8.64274 24.9784 8.67854 24.9414 8.70726C24.5884 9.00138 23.7061 9.94256 23.7649 10.619C24.1246 13.1387 25.1729 15.5101 26.7943 17.472C26.8626 17.5432 26.9008 17.638 26.9008 17.7367C26.9008 17.8353 26.8626 17.9302 26.7943 18.0014C26.7281 18.0565 26.6452 18.0876 26.559 18.0896H26.5296Z" fill="#053361"/>
<path d="M48.2356 20.5913H48.2062C48.1598 20.5876 48.1145 20.5747 48.0731 20.5535C48.0317 20.5322 47.9949 20.503 47.9648 20.4674C47.9348 20.4319 47.912 20.3908 47.8979 20.3464C47.8838 20.302 47.8786 20.2553 47.8826 20.2089C47.8826 20.1501 48.6473 13.8266 48.5885 11.9736C48.5021 10.8607 48.0347 9.81155 47.265 9.00304C47.1967 8.93185 47.1585 8.83701 47.1585 8.73834C47.1585 8.63968 47.1967 8.54483 47.265 8.47363C47.3362 8.40533 47.431 8.36719 47.5297 8.36719C47.6284 8.36719 47.7232 8.40533 47.7944 8.47363C48.6953 9.41544 49.2366 10.6438 49.3238 11.9442C49.4121 13.856 48.6473 20.0325 48.6179 20.2972C48.5977 20.3827 48.5486 20.4586 48.479 20.5121C48.4094 20.5657 48.3234 20.5936 48.2356 20.5913V20.5913ZM5.88264 11.7678L6.88264 11.1795C6.38182 10.7885 5.79839 10.5169 5.17676 10.3854V11.7972L5.88264 11.7678ZM72.1473 14.4736C71.4984 14.0324 70.8703 13.5613 70.265 13.0619C70.8299 12.8553 71.4283 12.7556 72.0297 12.7678L72.1473 14.4736Z" fill="#053361"/>
<path d="M25.9709 8.44412C25.9706 6.86995 25.8625 5.29765 25.6474 3.73824C25.3533 2.91471 24.6768 2.94412 24.4709 3.44412C24.265 3.94412 23.4121 7.94412 23.4121 7.94412C23.4121 7.94412 23.5592 8.59118 26.0003 8.41471L25.9709 8.44412Z" fill="white"/>
<path d="M25.1763 9.20805C23.294 9.20805 22.7646 8.61982 22.6763 8.09041C22.6548 7.99355 22.6548 7.89314 22.6763 7.79629C22.9585 6.21012 23.3218 4.63944 23.7646 3.09041C23.8766 2.85457 24.0573 2.65814 24.2831 2.52691C24.5088 2.39568 24.7689 2.33579 25.0293 2.35511C25.3432 2.39378 25.6379 2.52703 25.8743 2.73716C26.1107 2.94729 26.2776 3.22436 26.3528 3.53158C26.6064 5.14669 26.7342 6.77904 26.7352 8.41394C26.7353 8.60396 26.6619 8.78666 26.5303 8.92374C26.3987 9.06082 26.2191 9.14163 26.0293 9.14923C25.7352 9.20805 25.441 9.20805 25.1469 9.20805H25.1763ZM24.2057 7.64923C24.5457 7.7079 24.8901 7.73742 25.2352 7.73747C25.2139 6.53739 25.1255 5.33943 24.9705 4.14923L24.2057 7.67864V7.64923Z" fill="#053361"/>
</svg>
