<svg width="35" height="35" viewBox="0 0 35 35" fill="none" xmlns="http://www.w3.org/2000/svg">
<circle cx="17.5" cy="17.5" r="17" stroke="#9B96B1"/>
<g clip-path="url(#clip0_3501_2464)">
<path d="M20.6667 10.2C21.1372 10.3613 21.5653 10.6265 21.9193 10.976L23.0233 12.0813C23.3732 12.4349 23.6387 12.8628 23.8 13.3333H20.6667V10.2ZM24 14.6667V22.6667C23.9989 23.5504 23.6474 24.3976 23.0225 25.0225C22.3976 25.6474 21.5504 25.9989 20.6667 26H15.3333C14.4496 25.9989 13.6024 25.6474 12.9775 25.0225C12.3526 24.3976 12.0011 23.5504 12 22.6667V13.3333C12.0011 12.4496 12.3526 11.6024 12.9775 10.9775C13.6024 10.3526 14.4496 10.0011 15.3333 10H19.3333V13.3333C19.3333 13.687 19.4738 14.0261 19.7239 14.2761C19.9739 14.5262 20.313 14.6667 20.6667 14.6667H24ZM21.2053 21.6087C21.1539 21.5375 21.0889 21.4772 21.0141 21.4312C20.9393 21.3852 20.8561 21.3545 20.7694 21.3407C20.6827 21.327 20.5941 21.3305 20.5087 21.3511C20.4234 21.3717 20.3429 21.4089 20.272 21.4607C19.8241 21.7725 19.3009 21.9587 18.7567 22C18.5434 21.9942 18.3393 21.9126 18.1807 21.77C17.8327 21.4939 17.4034 21.3404 16.9593 21.3333C16.2198 21.4029 15.5154 21.6818 14.9287 22.1373C14.8559 22.1892 14.7942 22.2553 14.7475 22.3315C14.7007 22.4077 14.6697 22.4925 14.6564 22.581C14.6431 22.6694 14.6477 22.7596 14.67 22.8462C14.6922 22.9328 14.7317 23.014 14.786 23.0851C14.8403 23.1561 14.9084 23.2155 14.9861 23.2597C15.0638 23.3039 15.1497 23.332 15.2385 23.3424C15.3273 23.3527 15.4173 23.3451 15.5031 23.32C15.5889 23.2948 15.6688 23.2527 15.738 23.196C16.0931 22.9179 16.5136 22.7356 16.9593 22.6667C17.1233 22.6667 17.2067 22.7187 17.426 22.8667C17.8059 23.1667 18.2753 23.331 18.7593 23.3333C19.5879 23.2955 20.3879 23.0193 21.0633 22.538C21.205 22.4333 21.2994 22.2768 21.326 22.1026C21.3526 21.9285 21.3092 21.7509 21.2053 21.6087ZM21.3333 19.3333C21.3333 19.1565 21.2631 18.987 21.1381 18.8619C21.013 18.7369 20.8435 18.6667 20.6667 18.6667H15.3333C15.1565 18.6667 14.987 18.7369 14.8619 18.8619C14.7369 18.987 14.6667 19.1565 14.6667 19.3333C14.6667 19.5101 14.7369 19.6797 14.8619 19.8047C14.987 19.9298 15.1565 20 15.3333 20H20.6667C20.8435 20 21.013 19.9298 21.1381 19.8047C21.2631 19.6797 21.3333 19.5101 21.3333 19.3333ZM21.3333 16.6667C21.3333 16.4899 21.2631 16.3203 21.1381 16.1953C21.013 16.0702 20.8435 16 20.6667 16H15.3333C15.1565 16 14.987 16.0702 14.8619 16.1953C14.7369 16.3203 14.6667 16.4899 14.6667 16.6667C14.6667 16.8435 14.7369 17.013 14.8619 17.1381C14.987 17.2631 15.1565 17.3333 15.3333 17.3333H20.6667C20.8435 17.3333 21.013 17.2631 21.1381 17.1381C21.2631 17.013 21.3333 16.8435 21.3333 16.6667Z" fill="#9B96B1"/>
</g>
<defs>
<clipPath id="clip0_3501_2464">
<rect width="16" height="16" fill="white" transform="translate(10 10)"/>
</clipPath>
</defs>
</svg>
