<svg width="43" height="43" viewBox="0 0 43 43" fill="none" xmlns="http://www.w3.org/2000/svg">
<circle cx="21.5" cy="21.5" r="21" stroke="#150A41"/>
<circle cx="21.5" cy="21.5" r="17.5" fill="#150A41"/>
<g clip-path="url(#clip0_3501_2463)">
<path d="M22.0009 26.6676C21.4482 26.6676 21.0009 26.2196 21.0009 25.6676C21.0009 24.3756 21.9022 23.1949 23.6069 22.2556C24.8769 21.5556 25.5342 20.1682 25.2802 18.7216C25.0456 17.3862 23.9489 16.2896 22.6136 16.0549C21.6502 15.8856 20.7036 16.1162 19.9462 16.7042C19.2029 17.2822 18.7356 18.1469 18.6649 19.0769C18.6229 19.6269 18.1416 20.0402 17.5922 19.9982C17.0416 19.9562 16.6289 19.4762 16.6709 18.9256C16.7842 17.4342 17.5309 16.0489 18.7196 15.1256C19.9276 14.1862 21.4336 13.8176 22.9589 14.0849C25.1082 14.4622 26.8729 16.2269 27.2502 18.3762C27.6482 20.6422 26.5716 22.9056 24.5722 24.0076C23.5882 24.5496 23.0009 25.1702 23.0009 25.6676C23.0009 26.2196 22.5536 26.6676 22.0009 26.6676ZM21.0009 29.0009C21.0009 29.5529 21.4489 30.0009 22.0009 30.0009C22.5529 30.0009 23.0009 29.5529 23.0009 29.0009C23.0009 28.4489 22.5529 28.0009 22.0009 28.0009C21.4489 28.0009 21.0009 28.4489 21.0009 29.0009Z" fill="white"/>
</g>
<defs>
<clipPath id="clip0_3501_2463">
<rect width="16" height="16" fill="white" transform="translate(14 14)"/>
</clipPath>
</defs>
</svg>
