<svg width="35" height="35" viewBox="0 0 35 35" fill="none" xmlns="http://www.w3.org/2000/svg">
<circle cx="17.5" cy="17.5" r="17" stroke="#9B96B1"/>
<g clip-path="url(#clip0_3501_2414)">
<path d="M19.3327 18C19.3327 18.7353 18.7347 19.3333 17.9993 19.3333C17.264 19.3333 16.666 18.7353 16.666 18C16.666 17.2647 17.264 16.6667 17.9993 16.6667C18.7347 16.6667 19.3327 17.2647 19.3327 18ZM26 20.3653C26 21.7407 25.1333 22.9947 23.844 23.486C22.95 23.8273 22.1053 24 21.332 24C20.2427 24 19.2667 23.734 18.3233 23.4767C17.4247 23.2313 16.5767 23 15.666 23C14.6187 23 13.958 23.0673 13.3867 23.2327C12.5827 23.464 11.7373 23.308 11.0667 22.8033C10.3887 22.2933 10 21.5147 10 20.6667V15.6347C10 14.2593 10.866 13.0053 12.1553 12.514C13.0493 12.1727 13.8947 12 14.6673 12C15.7567 12 16.732 12.266 17.676 12.5233C18.5747 12.7687 19.4227 13 20.3333 13C21.38 13 22.0413 12.9327 22.6127 12.7673C23.418 12.536 24.2633 12.692 24.9333 13.1967C25.6113 13.7067 26 14.4853 26 15.3333V20.3653ZM14 19.3333C14 18.9653 13.7013 18.6667 13.3333 18.6667C12.9653 18.6667 12.6667 18.9653 12.6667 19.3333C12.6667 19.7013 12.9653 20 13.3333 20C13.7013 20 14 19.7013 14 19.3333ZM14 15.3333C14 14.9653 13.7013 14.6667 13.3333 14.6667C12.9653 14.6667 12.6667 14.9653 12.6667 15.3333C12.6667 15.7013 12.9653 16 13.3333 16C13.7013 16 14 15.7013 14 15.3333ZM20.6667 18C20.6667 16.5293 19.4707 15.3333 18 15.3333C16.5293 15.3333 15.3333 16.5293 15.3333 18C15.3333 19.4707 16.5293 20.6667 18 20.6667C19.4707 20.6667 20.6667 19.4707 20.6667 18ZM23.3333 20.6667C23.3333 20.2987 23.0347 20 22.6667 20C22.2987 20 22 20.2987 22 20.6667C22 21.0347 22.2987 21.3333 22.6667 21.3333C23.0347 21.3333 23.3333 21.0347 23.3333 20.6667ZM23.3333 16.6667C23.3333 16.2987 23.0347 16 22.6667 16C22.2987 16 22 16.2987 22 16.6667C22 17.0347 22.2987 17.3333 22.6667 17.3333C23.0347 17.3333 23.3333 17.0347 23.3333 16.6667Z" fill="#9B96B1"/>
</g>
<defs>
<clipPath id="clip0_3501_2414">
<rect width="16" height="16" fill="white" transform="translate(10 10)"/>
</clipPath>
</defs>
</svg>
