<svg width="35" height="35" viewBox="0 0 35 35" fill="none" xmlns="http://www.w3.org/2000/svg">
<circle cx="17.5" cy="17.5" r="17" stroke="#9B96B1"/>
<g clip-path="url(#clip0_3501_2409)">
<path d="M22.6667 12.6667H21.9333C21.7786 11.9143 21.3692 11.2382 20.7742 10.7525C20.1791 10.2667 19.4348 10.001 18.6667 10L17.3333 10C16.5652 10.001 15.8209 10.2667 15.2258 10.7525C14.6308 11.2382 14.2214 11.9143 14.0667 12.6667H13.3333C12.4496 12.6677 11.6024 13.0193 10.9775 13.6441C10.3526 14.269 10.0011 15.1163 10 16V18H26V16C25.9989 15.1163 25.6474 14.269 25.0225 13.6441C24.3976 13.0193 23.5504 12.6677 22.6667 12.6667ZM15.456 12.6667C15.5934 12.2781 15.8475 11.9414 16.1835 11.7027C16.5196 11.4641 16.9212 11.335 17.3333 11.3333H18.6667C19.0788 11.335 19.4804 11.4641 19.8165 11.7027C20.1525 11.9414 20.4066 12.2781 20.544 12.6667H15.456Z" fill="#9B96B1"/>
<path d="M18.6667 20.0026C18.6667 20.1794 18.5964 20.349 18.4714 20.474C18.3464 20.599 18.1768 20.6693 18 20.6693C17.8232 20.6693 17.6536 20.599 17.5286 20.474C17.4036 20.349 17.3333 20.1794 17.3333 20.0026V19.3359H10V22.6693C10.0011 23.553 10.3526 24.4002 10.9775 25.0251C11.6024 25.65 12.4496 26.0015 13.3333 26.0026H22.6667C23.5504 26.0015 24.3976 25.65 25.0225 25.0251C25.6474 24.4002 25.9989 23.553 26 22.6693V19.3359H18.6667V20.0026Z" fill="#9B96B1"/>
</g>
<defs>
<clipPath id="clip0_3501_2409">
<rect width="16" height="16" fill="white" transform="translate(10 10)"/>
</clipPath>
</defs>
</svg>
